<?xml version="1.0" encoding="utf-8"?>
<!-- Generator: Adobe Illustrator 25.0.1, SVG Export Plug-In . SVG Version: 6.00 Build 0)  -->
<svg version="1.0" id="Layer_1" xmlns="http://www.w3.org/2000/svg" xmlns:xlink="http://www.w3.org/1999/xlink" x="0px" y="0px"
	 viewBox="0 0 1920 794" style="enable-background:new 0 0 1920 794;" xml:space="preserve">
<style type="text/css">
	.st0{fill:#2B2B36;}
	.st1{fill:#F79200;}
	.st2{fill:#FFBE12;}
</style>
<g>
	<g>
		<path class="st0" d="M1674.4,613.32c-2.25,6.01-5.49,11.3-9.69,15.88c-4.21,4.57-9.33,8.15-15.36,10.73
			c-6.03,2.57-12.82,3.86-20.36,3.86c-7.55,0-14.31-1.29-20.26-3.86c-5.95-2.58-11.07-6.15-15.35-10.73
			c-4.29-4.58-7.52-9.87-9.69-15.88c-2.18-6-3.27-12.44-3.27-19.3c0-7.3,1.09-13.98,3.27-20.06c2.18-6.08,5.41-11.34,9.69-15.77
			c4.28-4.43,9.4-7.86,15.35-10.3c5.95-2.43,12.71-3.65,20.26-3.65c7.41,0,14.12,1.22,20.15,3.65c6.02,2.43,11.18,5.87,15.47,10.3
			c4.29,4.43,7.55,9.69,9.8,15.77c2.25,6.08,3.37,12.76,3.37,20.06C1677.77,600.88,1676.64,607.32,1674.4,613.32 M1692.37,536.74
			c-7.12-7.72-15.98-13.91-26.58-18.56c-10.6-4.64-22.87-6.97-36.81-6.97c-14.09,0-26.4,2.33-36.92,6.97
			c-10.53,4.65-19.39,10.84-26.58,18.56c-7.19,7.72-12.56,16.35-16.12,25.85c-3.56,9.51-5.33,19.13-5.33,28.86v4.72
			c0,8.87,1.74,17.99,5.23,27.35c3.49,9.37,8.71,18.1,15.68,26.17c6.97,8.08,15.79,14.62,26.46,19.63
			c10.67,5.01,23.2,7.51,37.58,7.51c14.37,0,26.9-2.5,37.57-7.51c10.67-5,19.49-11.54,26.46-19.63c6.97-8.08,12.2-16.8,15.68-26.17
			c3.49-9.36,5.23-18.48,5.23-27.35v-4.72c0-9.73-1.82-19.34-5.45-28.86C1704.85,553.08,1699.48,544.46,1692.37,536.74
			 M1479.15,672.32h35.73V515.71h-35.73V672.32z M1012.27,604.31l19.37-59.64h7.97l19.86,59.64H1012.27z M1006.96,515.71
			l-52.5,156.61h35.73l12.61-38.83h66.38l12.93,38.83h37.03l-54.46-156.61H1006.96z M892.54,643.79H887L860.62,521.5h-6.98h-24.18
			h-5.67l-22.61,122.28h-5.76l-29.57-128.07h-36.82l39.21,156.61h54.23L842,577.87l21.01,94.45h55.33l34.85-156.61h-34.85
			L892.54,643.79z M1180.75,545.29h29.61c5.22,0,9.72,1.03,13.5,3.09c3.78,2.06,6.75,4.97,8.93,8.72c2.17,3.76,3.27,8.2,3.27,13.3
			c0,4.83-1.09,9.12-3.27,12.87c-2.18,3.76-5.15,6.67-8.93,8.72c-3.78,2.06-8.27,3.09-13.5,3.09h-29.61V545.29z M1264.25,599.87
			c5.3-7.58,7.95-17.13,7.95-28.62v-3.4c0-11.49-2.61-21.1-7.84-28.83c-5.23-7.73-12.71-13.54-22.43-17.45
			c-9.73-3.9-21.2-5.85-34.4-5.85h-26.78h-9.58h-26.12h-19.82l19.82,26.44v130.17h35.71v-49.79h25.86l34.89,49.79h41.37l-40.6-55.62
			C1251.7,612.95,1259.03,607.34,1264.25,599.87 M1349.33,545.29h29.61c5.22,0,9.72,1.03,13.5,3.09c3.78,2.06,6.75,4.97,8.93,8.72
			c2.17,3.76,3.27,8.2,3.27,13.3c0,4.83-1.09,9.12-3.27,12.87c-2.18,3.76-5.15,6.67-8.93,8.72c-3.78,2.06-8.27,3.09-13.5,3.09
			h-29.61V545.29z M1432.82,599.87c5.3-7.58,7.95-17.13,7.95-28.62v-3.4c0-11.49-2.61-21.1-7.84-28.83
			c-5.23-7.73-12.71-13.54-22.43-17.45c-9.73-3.9-21.2-5.85-34.4-5.85h-26.78h-9.58h-26.12h-19.82l19.82,26.44v130.17h35.71v-49.79
			h25.86l34.89,49.79h41.37l-40.6-55.62C1420.28,612.95,1427.6,607.34,1432.82,599.87 M1781.88,545.29h29.61
			c5.22,0,9.72,1.03,13.5,3.09c3.78,2.06,6.75,4.97,8.93,8.72c2.17,3.76,3.27,8.2,3.27,13.3c0,4.83-1.09,9.12-3.27,12.87
			c-2.18,3.76-5.15,6.67-8.93,8.72c-3.78,2.06-8.27,3.09-13.5,3.09h-29.61V545.29z M1865.38,599.87c5.3-7.58,7.95-17.13,7.95-28.62
			v-3.4c0-11.49-2.61-21.1-7.84-28.83c-5.23-7.73-12.71-13.54-22.43-17.45c-9.73-3.9-21.2-5.85-34.4-5.85h-26.78h-9.58h-26.12
			h-19.82l19.82,26.44v130.17h35.71v-49.79h25.86l34.89,49.79H1884l-40.6-55.62C1852.83,612.95,1860.16,607.34,1865.38,599.87"/>
		<path class="st0" d="M814.22,310.11c14.38,0,27.08,2.65,38.12,7.94c11.04,5.29,19.86,12.66,26.47,22.09
			c6.61,9.44,10.49,20.38,11.65,32.82h-35.94c-1.02-6.29-3.38-11.66-7.08-16.09c-3.7-4.43-8.38-7.83-14.04-10.19
			c-5.67-2.36-12.06-3.54-19.17-3.54c-7.11,0-13.43,1.18-18.95,3.54c-5.52,2.36-10.13,5.76-13.83,10.19
			c-3.7,4.43-6.53,9.69-8.49,15.77c-1.96,6.08-2.94,12.84-2.94,20.28c0,7.3,0.98,13.98,2.94,20.06c1.96,6.08,4.87,11.37,8.72,15.87
			c3.84,4.5,8.6,7.94,14.26,10.3c5.67,2.36,12.13,3.54,19.39,3.54c11.03,0,20.36-2.65,27.99-7.94c7.62-5.29,12.23-12.58,13.83-21.88
			h35.73c-1.31,11.44-5.19,21.92-11.66,31.43c-6.46,9.51-15.25,17.13-26.36,22.84c-11.11,5.72-24.29,8.58-39.53,8.58
			c-14.38,0-26.72-2.5-37.03-7.51c-10.31-5-18.77-11.51-25.38-19.52c-6.61-8.01-11.48-16.73-14.6-26.17
			c-3.12-9.44-4.68-18.6-4.68-27.46v-4.72c0-9.73,1.59-19.35,4.79-28.86c3.19-9.5,8.13-18.13,14.81-25.85
			c6.68-7.72,15.07-13.91,25.16-18.56C788.48,312.44,800.42,310.11,814.22,310.11 M978.64,346.8c-5.95,2.43-11.07,5.87-15.35,10.3
			c-4.28,4.43-7.51,9.69-9.69,15.77c-2.18,6.08-3.27,12.76-3.27,20.06c0,6.86,1.09,13.3,3.27,19.31c2.18,6,5.41,11.3,9.69,15.88
			c4.28,4.58,9.4,8.15,15.35,10.73c5.95,2.57,12.71,3.86,20.26,3.86c7.55,0,14.34-1.29,20.36-3.86c6.03-2.57,11.15-6.15,15.36-10.73
			c4.21-4.58,7.44-9.87,9.69-15.88c2.25-6.01,3.37-12.44,3.37-19.31c0-7.3-1.12-13.98-3.37-20.06c-2.25-6.08-5.52-11.34-9.8-15.77
			c-4.29-4.43-9.44-7.86-15.47-10.3c-6.03-2.43-12.74-3.65-20.15-3.65C991.35,343.15,984.6,344.37,978.64,346.8 M935.41,335.64
			c7.19-7.72,16.04-13.91,26.58-18.56c10.53-4.64,22.84-6.97,36.92-6.97c13.94,0,26.21,2.33,36.81,6.97
			c10.6,4.65,19.46,10.84,26.58,18.56c7.11,7.72,12.49,16.35,16.12,25.85c3.63,9.51,5.45,19.13,5.45,28.86v4.72
			c0,8.87-1.75,17.99-5.23,27.36c-3.49,9.36-8.71,18.09-15.68,26.17c-6.97,8.08-15.79,14.62-26.46,19.63
			c-10.67,5-23.2,7.51-37.57,7.51c-14.38,0-26.9-2.5-37.58-7.51c-10.67-5-19.49-11.54-26.46-19.63
			c-6.97-8.08-12.2-16.81-15.68-26.17c-3.49-9.37-5.23-18.49-5.23-27.36v-4.72c0-9.73,1.77-19.35,5.33-28.86
			C922.84,351.99,928.22,343.36,935.41,335.64 M1253.51,390.35v4.72c0,9.58-1.78,18.95-5.34,28.11
			c-3.56,9.15-8.97,17.45-16.23,24.88c-7.26,7.44-16.27,13.34-27.01,17.7c-10.75,4.36-23.31,6.54-37.69,6.54h-23.31h-4.36h-31.37
			V313.54h31.37h4.36h23.31c14.38,0,26.94,2.08,37.69,6.22c10.74,4.15,19.75,9.8,27.01,16.95c7.26,7.16,12.67,15.34,16.23,24.57
			C1251.73,370.5,1253.51,380.19,1253.51,390.35z M1217.35,392.71c0-7.3-1.12-13.8-3.37-19.53c-2.25-5.72-5.44-10.58-9.58-14.59
			c-4.14-4-9.19-7-15.14-9.01c-5.96-2-12.71-3-20.26-3h-25.05h-15.41l15.41,11.56v81.33h25.05c7.55,0,14.3-1.1,20.26-3.32
			c5.95-2.21,11-5.37,15.14-9.44c4.14-4.08,7.33-9.01,9.58-14.8C1216.23,406.12,1217.35,399.72,1217.35,392.71z M1314.9,442.05
			v-35.82h60.12v-29.18h-60.12v-21.69l-15.41-11.56h15.41h63.6v-29.17h-63.6h-4.36h-30.5v156.61h30.5h4.36h65.13v-29.18H1314.9z"/>
		<path class="st0" d="M1037.75,248.83c-6.62-8.01-11.48-16.73-14.6-26.17c-3.12-9.44-4.68-18.59-4.68-27.46v-4.72
			c0-9.73,1.6-19.35,4.79-28.86c3.19-9.5,8.13-18.13,14.81-25.85c6.68-7.72,15.07-13.91,25.16-18.56
			c10.09-4.64,22.03-6.97,35.83-6.97c14.38,0,27.08,2.65,38.12,7.94c11.04,5.29,19.85,12.66,26.46,22.1
			c6.61,9.44,10.49,20.38,11.65,32.82h-35.94c-1.02-6.29-3.37-11.66-7.08-16.09c-3.7-4.43-8.39-7.83-14.05-10.19
			c-5.67-2.36-12.05-3.54-19.17-3.54c-7.12,0-13.43,1.18-18.95,3.54c-5.52,2.36-10.13,5.76-13.83,10.19
			c-3.7,4.43-6.54,9.69-8.5,15.77c-1.96,6.08-2.94,12.84-2.94,20.28c0,7.3,0.98,13.98,2.94,20.06c1.96,6.08,4.87,11.37,8.72,15.87
			c3.85,4.5,8.61,7.94,14.27,10.3c5.67,2.36,12.12,3.54,19.39,3.54c11.04,0,20.37-2.65,27.99-7.94
			c7.62-5.29,12.23-12.58,13.83-21.88h35.72c-1.31,11.44-5.19,21.92-11.65,31.43c-6.46,9.51-15.25,17.13-26.36,22.84
			c-11.11,5.72-24.28,8.58-39.53,8.58c-14.38,0-26.72-2.5-37.03-7.51C1052.82,263.35,1044.36,256.84,1037.75,248.83 M814.44,243.47
			c-4.5,1.72-10.1,2.57-16.77,2.57c-7.41,0-13.43-1.04-18.08-3.11c-4.65-2.07-8.1-4.83-10.35-8.26c-2.25-3.43-3.37-7.15-3.37-11.16
			h-34.85c0,10.16,2.57,19.13,7.73,26.92c5.15,7.8,12.67,13.98,22.54,18.56c9.87,4.57,22,6.86,36.38,6.86
			c13.51,0,25.12-2.07,34.85-6.22c9.73-4.15,17.24-10.01,22.54-17.59c5.3-7.58,7.95-16.37,7.95-26.39c0-9.72-2.5-17.98-7.51-24.78
			c-5.01-6.79-11.94-12.15-20.8-16.09c-8.86-3.93-19.1-6.4-30.72-7.4l-12.2-1.07c-7.26-0.57-12.49-2.5-15.68-5.79
			c-3.2-3.29-4.79-7.08-4.79-11.37c0-3.57,0.87-6.83,2.62-9.76c1.74-2.93,4.39-5.22,7.95-6.86c3.56-1.64,7.95-2.47,13.18-2.47
			c5.52,0,10.13,0.97,13.83,2.89c3.7,1.93,6.5,4.51,8.39,7.73c1.88,3.22,2.83,6.76,2.83,10.62h34.85c0-10.15-2.39-19.06-7.18-26.71
			c-4.79-7.65-11.66-13.62-20.59-17.91c-8.93-4.29-19.64-6.43-32.13-6.43c-11.91,0-22.22,1.97-30.93,5.9
			c-8.71,3.93-15.5,9.55-20.37,16.84c-4.87,7.29-7.3,16.02-7.3,26.17c0,13.87,4.72,24.99,14.16,33.36
			c9.44,8.36,22.07,13.27,37.9,14.7l11.98,0.86c9.73,0.86,16.77,2.75,21.13,5.68c4.36,2.93,6.54,6.9,6.54,11.91
			c0,4.01-1.17,7.55-3.49,10.62C822.35,239.35,818.94,241.75,814.44,243.47 M1335.81,243.89c5.37-10.15,8.06-22.16,8.06-36.04
			v-92.89h-35.94v94.17c0,7.01-1.27,13.02-3.81,18.02c-2.54,5.01-6.35,8.87-11.44,11.59c-5.08,2.72-11.25,4.08-18.51,4.08
			c-7.26,0-13.4-1.36-18.41-4.08c-5.01-2.72-8.86-6.61-11.55-11.69c-2.69-5.07-4.03-11.05-4.03-17.91v-94.17h-35.73v92.89
			c0,13.87,2.68,25.89,8.06,36.04c5.37,10.16,13.25,18.03,23.64,23.6c10.38,5.58,23.05,8.36,38.01,8.36
			c15.1,0,27.81-2.79,38.12-8.36C1322.59,261.92,1330.44,254.05,1335.81,243.89 M1417.27,194.33h29.61c5.22,0,9.72-1.03,13.5-3.09
			c3.78-2.05,6.75-4.96,8.93-8.72c2.17-3.76,3.27-8.04,3.27-12.87c0-5.1-1.09-9.54-3.27-13.3c-2.18-3.76-5.15-6.67-8.93-8.72
			c-3.78-2.05-8.27-3.09-13.5-3.09h-29.61V194.33z M1500.77,199.11c-5.22,7.47-12.55,13.08-21.98,16.84l40.6,55.62h-41.37
			l-34.89-49.79h-25.86v49.79h-35.71V141.4l-19.82-26.44h19.82h26.12h9.58h26.78c13.21,0,24.68,1.96,34.4,5.85
			c9.72,3.9,17.2,9.72,22.43,17.45c5.22,7.73,7.84,17.34,7.84,28.83v3.4C1508.72,181.98,1506.06,191.53,1500.77,199.11
			 M928.33,242.39v-35.82h60.12v-29.18h-60.12V155.7l-15.41-11.56h15.41h63.6v-29.17h-63.6h-4.36h-30.5v156.61h30.5h4.36h65.13
			v-29.18H928.33z M1581.47,242.39v-35.82h60.12v-29.18h-60.12V155.7l-15.41-11.56h15.41v0h63.6v-29.17h-63.6h-4.36h-30.5v156.61
			h30.5h4.36h65.13v-29.18H1581.47z"/>
	</g>
	<g>
		<g>
			<path class="st1" d="M594.4,737.87c-0.75-1.93-1.86-3.7-3.34-5.29c-1.48-1.6-3.29-2.86-5.44-3.8c-2.15-0.93-4.62-1.4-7.41-1.4
				c-2.79,0-5.26,0.47-7.41,1.4c-2.14,0.94-3.96,2.21-5.43,3.8c-1.48,1.59-2.59,3.36-3.34,5.29c-0.75,1.93-1.13,3.91-1.13,5.95v0.96
				c0,1.96,0.36,3.91,1.1,5.86c0.73,1.96,1.82,3.74,3.28,5.35c1.46,1.61,3.27,2.91,5.43,3.89c2.17,0.98,4.67,1.46,7.5,1.46
				c2.83,0,5.33-0.49,7.5-1.46c2.16-0.98,3.98-2.28,5.43-3.89c1.46-1.61,2.55-3.4,3.28-5.35c0.73-1.95,1.1-3.91,1.1-5.86v-0.96
				C595.53,741.78,595.15,739.8,594.4,737.87z M590.39,751.32c-1.15,2.1-2.78,3.77-4.86,5.02c-2.09,1.25-4.52,1.89-7.32,1.89
				c-2.79,0-5.24-0.63-7.32-1.89c-2.09-1.25-3.71-2.93-4.86-5.02c-1.15-2.09-1.73-4.42-1.73-6.97c0-2.63,0.58-4.99,1.73-7.09
				c1.15-2.09,2.77-3.74,4.86-4.96c2.08-1.21,4.52-1.82,7.32-1.82c2.79,0,5.23,0.61,7.32,1.82c2.08,1.22,3.71,2.87,4.86,4.96
				c1.15,2.1,1.73,4.46,1.73,7.09C592.12,746.91,591.54,749.23,590.39,751.32z"/>
			<path class="st1" d="M584.11,746.03c1.42-1.12,2.12-2.73,2.12-4.84c0-2.11-0.71-3.73-2.12-4.85c-1.42-1.11-3.4-1.67-5.95-1.67
				h-2.55h-2.37h-2.12v18.66h4.49v-5.62h2.55c0.09,0,0.17-0.01,0.25-0.01l3.81,5.64h5.1l-4.69-6.45
				C583.17,746.64,583.67,746.37,584.11,746.03z M575.61,738.43h2.85c1.1,0,1.9,0.23,2.43,0.69c0.53,0.46,0.79,1.15,0.79,2.07
				c0,0.92-0.26,1.6-0.79,2.06c-0.53,0.46-1.33,0.68-2.43,0.68h-2.85V738.43z"/>
		</g>
		<path class="st2" d="M333.8,753.41l-17.62,7.9v-88.45c0,0,76.18-50.47,93.76-64.21c46.25-36.15,101.39-92.54,101.39-155.86v-22.33
			l40.76-32.62H316.18v-83.73h280.18V452.8C596.36,633.52,344.52,748.61,333.8,753.41z M316.27,114.87
			c21.22,2.88,121.7,20.25,195.07,97.32v62.85h85.03v-94.02l-10-11.68C481.95,47.14,326.67,31.62,320.1,31.02l-3.92-0.36v84.23
			C316.21,114.88,316.24,114.88,316.27,114.87z"/>
		<path class="st1" d="M316.18,397.85H36V181.03l9.99-11.68C150.41,47.14,305.69,31.62,312.24,31.02l3.94-0.36v84.23
			c-21.06,2.97-122.24,20.87-195.17,97.32v74.53l-36.5,27.39h231.66V397.85z M222.41,608.66c-46.27-36.15-101.4-87.26-101.4-143.31
			l20.24-28.41H36v28.41c0,171.17,251.84,283.27,262.56,288.07l17.63,7.9v-88.45C316.18,672.87,239.99,622.4,222.41,608.66z"/>
	</g>
</g>
</svg>
